<?xml version="1.0" encoding="UTF-8" standalone="no"?>
<!-- Generator: Adobe Illustrator 19.0.0, SVG Export Plug-In . SVG Version: 6.00 Build 0)  -->

<svg
   xmlns:dc="http://purl.org/dc/elements/1.1/"
   xmlns:cc="http://creativecommons.org/ns#"
   xmlns:rdf="http://www.w3.org/1999/02/22-rdf-syntax-ns#"
   xmlns:svg="http://www.w3.org/2000/svg"
   xmlns="http://www.w3.org/2000/svg"
   xmlns:sodipodi="http://sodipodi.sourceforge.net/DTD/sodipodi-0.dtd"
   xmlns:inkscape="http://www.inkscape.org/namespaces/inkscape"
   version="1.1"
   id="Capa_1"
   x="0px"
   y="0px"
   viewBox="0 0 20 20"
   xml:space="preserve"
   sodipodi:docname="brickwall2.svg"
   width="20"
   height="20"
   inkscape:version="0.92.2 5c3e80d, 2017-08-06"><metadata
     id="metadata72"><rdf:RDF><cc:Work
         rdf:about=""><dc:format>image/svg+xml</dc:format><dc:type
           rdf:resource="http://purl.org/dc/dcmitype/StillImage" /><dc:title></dc:title></cc:Work></rdf:RDF></metadata><defs
     id="defs70" /><sodipodi:namedview
     pagecolor="#ffffff"
     bordercolor="#666666"
     borderopacity="1"
     objecttolerance="10"
     gridtolerance="10"
     guidetolerance="10"
     inkscape:pageopacity="0"
     inkscape:pageshadow="2"
     inkscape:window-width="1027"
     inkscape:window-height="717"
     id="namedview68"
     showgrid="false"
     inkscape:zoom="0.94348145"
     inkscape:cx="256"
     inkscape:cy="256"
     inkscape:window-x="0"
     inkscape:window-y="0"
     inkscape:window-maximized="0"
     inkscape:current-layer="Capa_1" /><g
     id="wall"
     transform="scale(0.0390625)"><path
       style="fill:#fccc88"
       d="m 494.345,282.483 v -52.966 c 9.739,-0.029 17.627,-7.916 17.655,-17.655 v -52.966 c -0.028,-9.739 -7.916,-17.627 -17.655,-17.655 V 88.276 C 504.084,88.247 511.972,80.36 512,70.621 V 17.655 C 511.972,7.916 504.084,0.028 494.345,0 H 414.897 C 405.158,0.028 397.27,7.916 397.242,17.655 H 344.276 C 344.247,7.916 336.36,0.028 326.621,0 H 17.655 C 7.916,0.028 0.028,7.916 0,17.655 v 52.966 c 0.029,9.739 7.916,17.627 17.655,17.655 v 52.966 C 7.916,141.27 0.028,149.158 0,158.897 v 52.966 c 0.029,9.739 7.916,17.627 17.655,17.655 v 52.966 C 7.916,282.511 0.028,290.399 0,300.138 v 52.966 c 0.029,9.739 7.916,17.626 17.655,17.655 v 52.966 C 7.916,423.753 0.028,431.64 0,441.379 v 52.966 c 0.029,9.739 7.916,17.627 17.655,17.655 h 79.448 c 9.739,-0.029 17.627,-7.916 17.655,-17.655 h 52.966 c 0.029,9.739 7.916,17.627 17.655,17.655 h 308.966 c 9.739,-0.029 17.627,-7.916 17.655,-17.655 v -52.966 c -0.028,-9.739 -7.916,-17.627 -17.655,-17.655 v -52.966 c 9.739,-0.029 17.627,-7.916 17.655,-17.655 v -52.966 c -0.028,-9.738 -7.916,-17.626 -17.655,-17.654 z"
       id="path2"
       inkscape:connector-curvature="0" /><path
       id="SVGCleanerId_0"
       style="fill:#cd4f38"
       d="m 17.655,0 h 308.966 c 9.751,0 17.655,7.904 17.655,17.655 v 52.966 c 0,9.751 -7.904,17.655 -17.655,17.655 H 17.655 C 7.904,88.276 0,80.371 0,70.621 V 17.655 C 0,7.904 7.904,0 17.655,0 Z"
       inkscape:connector-curvature="0" /><path
       style="fill:#dc6c33"
       d="m 414.897,0 h 79.448 C 504.095,0 512,7.904 512,17.655 v 52.966 c 0,9.751 -7.905,17.655 -17.655,17.655 h -79.448 c -9.751,0 -17.655,-7.904 -17.655,-17.655 V 17.655 C 397.241,7.904 405.146,0 414.897,0 Z"
       id="path5"
       inkscape:connector-curvature="0" /><path
       id="SVGCleanerId_1"
       style="fill:#cd4f38"
       d="m 185.379,423.724 h 308.966 c 9.751,0 17.655,7.905 17.655,17.655 v 52.966 C 512,504.096 504.095,512 494.345,512 H 185.379 c -9.751,0 -17.655,-7.905 -17.655,-17.655 v -52.966 c 0,-9.75 7.905,-17.655 17.655,-17.655 z"
       inkscape:connector-curvature="0" /><path
       id="SVGCleanerId_2"
       style="fill:#dc6c33"
       d="m 17.655,423.724 h 79.448 c 9.751,0 17.655,7.905 17.655,17.655 v 52.966 c 0,9.751 -7.904,17.655 -17.655,17.655 H 17.655 C 7.904,512 0,504.095 0,494.345 v -52.966 c 0,-9.75 7.904,-17.655 17.655,-17.655 z"
       inkscape:connector-curvature="0" /><path
       id="SVGCleanerId_3"
       style="fill:#dc6c33"
       d="m 17.655,282.483 h 308.966 c 9.751,0 17.655,7.905 17.655,17.655 v 52.966 c 0,9.751 -7.904,17.655 -17.655,17.655 H 17.655 C 7.904,370.759 0,362.854 0,353.103 v -52.966 c 0,-9.75 7.904,-17.654 17.655,-17.654 z"
       inkscape:connector-curvature="0" /><path
       id="SVGCleanerId_4"
       style="fill:#cd4f38"
       d="m 414.897,282.483 h 79.448 c 9.751,0 17.655,7.905 17.655,17.655 v 52.966 c 0,9.751 -7.905,17.655 -17.655,17.655 h -79.448 c -9.751,0 -17.655,-7.904 -17.655,-17.655 v -52.966 c -0.001,-9.751 7.904,-17.655 17.655,-17.655 z"
       inkscape:connector-curvature="0" /><path
       style="fill:#ed634c"
       d="m 185.379,141.241 h 308.966 c 9.751,0 17.655,7.904 17.655,17.655 v 52.966 c 0,9.751 -7.905,17.655 -17.655,17.655 H 185.379 c -9.751,0 -17.655,-7.904 -17.655,-17.655 v -52.966 c 0,-9.75 7.905,-17.655 17.655,-17.655 z"
       id="path11"
       inkscape:connector-curvature="0" /><path
       id="SVGCleanerId_5"
       style="fill:#ec9130"
       d="m 17.655,141.241 h 79.448 c 9.751,0 17.655,7.904 17.655,17.655 v 52.966 c 0,9.751 -7.904,17.655 -17.655,17.655 H 17.655 C 7.904,229.517 0,221.613 0,211.862 v -52.966 c 0,-9.75 7.904,-17.655 17.655,-17.655 z"
       inkscape:connector-curvature="0" /><g
       id="g15"><path
         id="SVGCleanerId_0_1_"
         style="fill:#cd4f38"
         d="m 17.655,0 h 308.966 c 9.751,0 17.655,7.904 17.655,17.655 v 52.966 c 0,9.751 -7.904,17.655 -17.655,17.655 H 17.655 C 7.904,88.276 0,80.371 0,70.621 V 17.655 C 0,7.904 7.904,0 17.655,0 Z"
         inkscape:connector-curvature="0" /></g><path
       style="fill:#ec9130"
       d="m 414.897,0 h 79.448 C 504.095,0 512,7.904 512,17.655 v 52.966 c 0,9.751 -7.905,17.655 -17.655,17.655 h -79.448 c -9.751,0 -17.655,-7.904 -17.655,-17.655 V 17.655 C 397.241,7.904 405.146,0 414.897,0 Z"
       id="path17"
       inkscape:connector-curvature="0" /><g
       id="g20"><path
         id="SVGCleanerId_1_1_"
         style="fill:#cd4f38"
         d="m 185.379,423.724 h 308.966 c 9.751,0 17.655,7.905 17.655,17.655 v 52.966 C 512,504.096 504.095,512 494.345,512 H 185.379 c -9.751,0 -17.655,-7.905 -17.655,-17.655 v -52.966 c 0,-9.75 7.905,-17.655 17.655,-17.655 z"
         inkscape:connector-curvature="0" /></g><g
       id="g23"><path
         id="SVGCleanerId_2_1_"
         style="fill:#dc6c33"
         d="m 17.655,423.724 h 79.448 c 9.751,0 17.655,7.905 17.655,17.655 v 52.966 c 0,9.751 -7.904,17.655 -17.655,17.655 H 17.655 C 7.904,512 0,504.095 0,494.345 v -52.966 c 0,-9.75 7.904,-17.655 17.655,-17.655 z"
         inkscape:connector-curvature="0" /></g><g
       id="g26"><path
         id="SVGCleanerId_3_1_"
         style="fill:#dc6c33"
         d="m 17.655,282.483 h 308.966 c 9.751,0 17.655,7.905 17.655,17.655 v 52.966 c 0,9.751 -7.904,17.655 -17.655,17.655 H 17.655 C 7.904,370.759 0,362.854 0,353.103 v -52.966 c 0,-9.75 7.904,-17.654 17.655,-17.654 z"
         inkscape:connector-curvature="0" /></g><g
       id="g29"><path
         id="SVGCleanerId_4_1_"
         style="fill:#cd4f38"
         d="m 414.897,282.483 h 79.448 c 9.751,0 17.655,7.905 17.655,17.655 v 52.966 c 0,9.751 -7.905,17.655 -17.655,17.655 h -79.448 c -9.751,0 -17.655,-7.904 -17.655,-17.655 v -52.966 c -0.001,-9.751 7.904,-17.655 17.655,-17.655 z"
         inkscape:connector-curvature="0" /></g><path
       style="fill:#dc6c33"
       d="m 185.379,141.241 h 308.966 c 9.751,0 17.655,7.904 17.655,17.655 v 52.966 c 0,9.751 -7.905,17.655 -17.655,17.655 H 185.379 c -9.751,0 -17.655,-7.904 -17.655,-17.655 v -52.966 c 0,-9.75 7.905,-17.655 17.655,-17.655 z"
       id="path31"
       inkscape:connector-curvature="0" /><g
       id="g34"><path
         id="SVGCleanerId_5_1_"
         style="fill:#ec9130"
         d="m 17.655,141.241 h 79.448 c 9.751,0 17.655,7.904 17.655,17.655 v 52.966 c 0,9.751 -7.904,17.655 -17.655,17.655 H 17.655 C 7.904,229.517 0,221.613 0,211.862 v -52.966 c 0,-9.75 7.904,-17.655 17.655,-17.655 z"
         inkscape:connector-curvature="0" /></g></g><g
     id="g37"
     transform="translate(0,-492)" /><g
     id="g39"
     transform="translate(0,-492)" /><g
     id="g41"
     transform="translate(0,-492)" /><g
     id="g43"
     transform="translate(0,-492)" /><g
     id="g45"
     transform="translate(0,-492)" /><g
     id="g47"
     transform="translate(0,-492)" /><g
     id="g49"
     transform="translate(0,-492)" /><g
     id="g51"
     transform="translate(0,-492)" /><g
     id="g53"
     transform="translate(0,-492)" /><g
     id="g55"
     transform="translate(0,-492)" /><g
     id="g57"
     transform="translate(0,-492)" /><g
     id="g59"
     transform="translate(0,-492)" /><g
     id="g61"
     transform="translate(0,-492)" /><g
     id="g63"
     transform="translate(0,-492)" /><g
     id="g65"
     transform="translate(0,-492)" /></svg>