<?xml version="1.0" encoding="UTF-8" standalone="no"?>
<!-- Generator: Adobe Illustrator 19.0.0, SVG Export Plug-In . SVG Version: 6.00 Build 0)  -->

<svg
   xmlns:dc="http://purl.org/dc/elements/1.1/"
   xmlns:cc="http://creativecommons.org/ns#"
   xmlns:rdf="http://www.w3.org/1999/02/22-rdf-syntax-ns#"
   xmlns:svg="http://www.w3.org/2000/svg"
   xmlns="http://www.w3.org/2000/svg"
   xmlns:sodipodi="http://sodipodi.sourceforge.net/DTD/sodipodi-0.dtd"
   xmlns:inkscape="http://www.inkscape.org/namespaces/inkscape"
   version="1.1"
   id="Capa_1"
   x="0px"
   y="0px"
   viewBox="0 0 49.999999 59.999998"
   xml:space="preserve"
   sodipodi:docname="destination.svg"
   width="50"
   height="60"
   inkscape:version="0.92.2 5c3e80d, 2017-08-06"><metadata
     id="metadata59"><rdf:RDF><cc:Work
         rdf:about=""><dc:format>image/svg+xml</dc:format><dc:type
           rdf:resource="http://purl.org/dc/dcmitype/StillImage" /><dc:title></dc:title></cc:Work></rdf:RDF></metadata><defs
     id="defs57" /><sodipodi:namedview
     pagecolor="#ffffff"
     bordercolor="#666666"
     borderopacity="1"
     objecttolerance="10"
     gridtolerance="10"
     guidetolerance="10"
     inkscape:pageopacity="0"
     inkscape:pageshadow="2"
     inkscape:window-width="1214"
     inkscape:window-height="760"
     id="namedview55"
     showgrid="false"
     inkscape:zoom="6.1600895"
     inkscape:cx="22.332038"
     inkscape:cy="25.612774"
     inkscape:window-x="45"
     inkscape:window-y="0"
     inkscape:window-maximized="0"
     inkscape:current-layer="Capa_1" />
     <g id="destination"><path
     style="fill:#d3d3d3;stroke-width:0.10416618"
     d="M 0.83332382,59.165657 24.999877,31.665786 49.166431,59.165657 Z"
     id="path2"
     inkscape:connector-curvature="0" /><path
     style="fill:#ed4720;stroke-width:0.10416618"
     d="M 24.999877,10.83255 V 24.165821 H 44.999784 L 40.453972,17.499185 44.999784,10.83255 Z"
     id="path4"
     inkscape:connector-curvature="0" /><circle
     style="fill:#f7ec2f;stroke-width:0.10416618"
     cx="33.333172"
     cy="15.832526"
     r="1.6666589"
     id="circle6" /><path
     style="fill:#f5fafc;stroke-width:0.10416618"
     d="m 19.166571,44.999056 2.499989,-4.999976 3.333317,4.999976 3.333318,-4.999976 3.333318,4.999976 1.579993,-3.949148 -8.246629,-9.384122 -7.428298,8.45246 z"
     id="path8"
     inkscape:connector-curvature="0" /><g
     id="g14"
     transform="matrix(0.10416618,0,0,0.10416618,-1.0978463e-4,9.9991161)"><path
       style="fill:#55d5f2"
       d="m 200.001,144.001 c 0,-19.88 -17.416,-36.32 -40.224,-39.432 -2.232,-22.688 -26.32,-40.568 -55.776,-40.568 -29.456,0 -53.544,17.88 -55.776,40.568 -22.808,3.112 -40.224,19.552 -40.224,39.432 0,19.816 17.304,36.224 40,39.4 v 0.6 h 112 v -0.6 c 22.696,-3.176 40,-19.584 40,-39.4 z"
       id="path10"
       inkscape:connector-curvature="0" /><path
       style="fill:#55d5f2"
       d="m 472.001,264.001 c 0,-9.32 -7.16,-17.312 -17.512,-21.288 -4.576,-15.352 -19.992,-26.712 -38.488,-26.712 -17.488,0 -32.2,10.168 -37.632,24.24 -0.792,-0.08 -1.56,-0.24 -2.368,-0.24 -13.256,0 -24,10.744 -24,24 0,13.256 10.744,24 24,24 h 72 v -0.848 c 13.776,-2.68 24,-11.984 24,-23.152 z"
       id="path12"
       inkscape:connector-curvature="0" /></g><path
     d="M 45.736447,10.443385 C 45.592281,10.170053 45.308949,9.9992203 44.999784,9.9992203 H 24.999877 c -0.460831,0 -0.833329,0.3724987 -0.833329,0.8333297 v 13.333271 7.185799 l -7.2208,8.216629 -16.73825459,19.04741 c -0.21666565,0.245832 -0.26833208,0.595831 -0.13333271,0.893329 0.13499937,0.299166 0.43166465,0.489998 0.75916312,0.489998 H 49.166431 c 0.327499,0 0.624164,-0.190832 0.759163,-0.489998 0.135,-0.297498 0.08333,-0.647497 -0.133333,-0.893329 L 25.833207,31.35162 v -6.35247 h 19.166577 c 0.309165,0 0.592497,-0.170832 0.736663,-0.444164 0.144999,-0.272499 0.125833,-0.603331 -0.04833,-0.85833 l -4.22498,-6.197471 4.22498,-6.197471 c 0.174166,-0.254999 0.193332,-0.58583 0.04833,-0.858329 z m -5.969972,6.586636 c -0.192499,0.283332 -0.192499,0.65583 0,0.939162 l 3.65665,5.363308 H 25.833207 V 11.665879 H 43.423125 Z M 2.6749819,58.332327 17.233247,41.765738 l 1.141661,3.492484 c 0.105,0.321665 0.393332,0.547497 0.729997,0.572497 0.349998,0.02583 0.656664,-0.156666 0.807496,-0.458331 l 1.857492,-3.715816 2.536654,3.804982 c 0.309166,0.464164 1.077495,0.464164 1.386661,0 l 2.639987,-3.959981 2.639988,3.959981 c 0.154999,0.233332 0.416665,0.370832 0.69333,0.370832 0.02833,0 0.0575,-0.0017 0.08667,-0.005 0.307499,-0.03167 0.573331,-0.231666 0.687497,-0.519165 l 1.075828,-2.689153 13.808269,15.713259 z M 32.282343,41.215741 31.48068,43.218232 29.026525,39.536582 c -0.309165,-0.464164 -1.077495,-0.464164 -1.38666,0 l -2.639988,3.959981 -2.639987,-3.959981 c -0.154999,-0.232499 -0.415832,-0.370831 -0.69333,-0.370831 -0.0175,0 -0.03417,8.33e-4 -0.05167,0.0017 -0.295832,0.01833 -0.56083,0.193333 -0.69333,0.459165 l -1.592492,3.184985 -0.816663,-2.499988 6.487469,-7.383299 z"
     id="path16"
     inkscape:connector-curvature="0"
     style="stroke-width:0.10416618" /><path
     d="m 32.499842,18.179182 v 3.48665 h 1.666659 v -3.48665 c 0.967496,-0.344998 1.666659,-1.261661 1.666659,-2.346656 0,-1.378327 -1.121661,-2.499988 -2.499988,-2.499988 -1.378327,0 -2.499989,1.121661 -2.499989,2.499988 0,1.084995 0.699164,2.001658 1.666659,2.346656 z m 0.83333,-3.179985 c 0.459998,0 0.833329,0.373331 0.833329,0.833329 0,0.459998 -0.373331,0.83333 -0.833329,0.83333 -0.459998,0 -0.83333,-0.373332 -0.83333,-0.83333 0,-0.459998 0.373332,-0.833329 0.83333,-0.833329 z"
     id="path18"
     inkscape:connector-curvature="0"
     style="stroke-width:0.10416618" /><path
     d="m 17.365746,20.177506 c -0.609163,-2.517488 -3.291651,-4.34498 -6.532469,-4.34498 -3.2408181,0 -5.9233056,1.827492 -6.5324694,4.34498 C 1.7749861,20.75917 -5.6184463e-6,22.709161 -5.6184463e-6,24.99915 c 0,2.365822 1.8999911184463,4.373313 4.5633120184463,4.876644 0.126666,0.0775 0.2766653,0.123333 0.4366646,0.123333 h 11.666612 c 0.144999,0 0.280832,-0.04333 0.399165,-0.116666 2.682487,-0.490831 4.600812,-2.506655 4.600812,-4.883311 0,-2.289989 -1.774992,-4.23998 -4.300814,-4.821644 z m -1.005828,8.154962 H 5.3174695 c -0.063333,-0.02583 -0.1308327,-0.045 -0.2016657,-0.05417 C 3.1166465,27.9983 1.6666533,26.618306 1.6666533,24.999147 c 0,-1.627492 1.4591598,-3.007486 3.4683171,-3.281651 0.3824982,-0.05167 0.6799968,-0.359999 0.7166633,-0.744163 0.1924991,-1.948325 2.3799888,-3.474151 4.9816433,-3.474151 2.601655,0 4.789144,1.525826 4.981643,3.474151 0.0375,0.384164 0.334166,0.692496 0.716664,0.744996 2.009157,0.273332 3.468317,1.653326 3.468317,3.280818 0,1.619159 -1.449993,2.999153 -3.449151,3.279151 -0.06667,0.0083 -0.129999,0.0275 -0.190832,0.05417 z"
     id="path20"
     inkscape:connector-curvature="0"
     style="stroke-width:0.10416618" /><path
     d="m 48.00727,34.662438 c -0.71833,-1.783325 -2.581655,-2.996652 -4.674145,-2.996652 -1.885824,0 -3.598316,0.988328 -4.441646,2.511655 -1.709992,0.139999 -3.058319,1.575825 -3.058319,3.321651 0,1.838324 1.494993,3.333317 3.333318,3.333317 h 7.499965 c 0.201665,0 0.386665,-0.07167 0.530831,-0.190832 1.668325,-0.455831 2.802487,-1.707492 2.802487,-3.142485 0,-1.176662 -0.75333,-2.236657 -1.992491,-2.836654 z m -1.714992,4.503313 h -7.1258 c -0.919163,0 -1.666659,-0.747497 -1.666659,-1.666659 0,-0.914996 0.739997,-1.659159 1.708325,-1.659159 h 0.015 c 0.0083,0.0017 0.09167,0.0125 0.1,0.01333 0.369165,0.0375 0.732496,-0.175832 0.867496,-0.528331 0.459998,-1.191661 1.723325,-1.992491 3.142485,-1.992491 1.50666,0 2.827487,0.899163 3.210818,2.186657 0.07333,0.248332 0.258332,0.447498 0.499998,0.539997 0.794996,0.305832 1.289161,0.857496 1.289161,1.439994 0,0.717496 -0.767497,1.388326 -1.824992,1.593326 -0.07667,0.015 -0.149166,0.04 -0.215832,0.07333 z"
     id="path22"
     inkscape:connector-curvature="0"
     style="stroke-width:0.10416618" /><g
     id="g24"
     transform="matrix(0.10416618,0,0,0.10416618,-1.0978463e-4,9.9991161)" /><g
     id="g26"
     transform="matrix(0.10416618,0,0,0.10416618,-1.0978463e-4,9.9991161)" /><g
     id="g28"
     transform="matrix(0.10416618,0,0,0.10416618,-1.0978463e-4,9.9991161)" /><g
     id="g30"
     transform="matrix(0.10416618,0,0,0.10416618,-1.0978463e-4,9.9991161)" /><g
     id="g32"
     transform="matrix(0.10416618,0,0,0.10416618,-1.0978463e-4,9.9991161)" /><g
     id="g34"
     transform="matrix(0.10416618,0,0,0.10416618,-1.0978463e-4,9.9991161)" /><g
     id="g36"
     transform="matrix(0.10416618,0,0,0.10416618,-1.0978463e-4,9.9991161)" /><g
     id="g38"
     transform="matrix(0.10416618,0,0,0.10416618,-1.0978463e-4,9.9991161)" /><g
     id="g40"
     transform="matrix(0.10416618,0,0,0.10416618,-1.0978463e-4,9.9991161)" /><g
     id="g42"
     transform="matrix(0.10416618,0,0,0.10416618,-1.0978463e-4,9.9991161)" /><g
     id="g44"
     transform="matrix(0.10416618,0,0,0.10416618,-1.0978463e-4,9.9991161)" /><g
     id="g46"
     transform="matrix(0.10416618,0,0,0.10416618,-1.0978463e-4,9.9991161)" /><g
     id="g48"
     transform="matrix(0.10416618,0,0,0.10416618,-1.0978463e-4,9.9991161)" /><g
     id="g50"
     transform="matrix(0.10416618,0,0,0.10416618,-1.0978463e-4,9.9991161)" /><g
     id="g52"
     transform="matrix(0.10416618,0,0,0.10416618,-1.0978463e-4,9.9991161)" />
   </g>
 </svg>