<?xml version="1.0" encoding="UTF-8" standalone="no"?>
<!-- Generator: Adobe Illustrator 19.0.0, SVG Export Plug-In . SVG Version: 6.00 Build 0)  -->

<svg
   xmlns:dc="http://purl.org/dc/elements/1.1/"
   xmlns:cc="http://creativecommons.org/ns#"
   xmlns:rdf="http://www.w3.org/1999/02/22-rdf-syntax-ns#"
   xmlns:svg="http://www.w3.org/2000/svg"
   xmlns="http://www.w3.org/2000/svg"
   xmlns:sodipodi="http://sodipodi.sourceforge.net/DTD/sodipodi-0.dtd"
   xmlns:inkscape="http://www.inkscape.org/namespaces/inkscape"
   version="1.1"
   id="Layer_1"
   x="0px"
   y="0px"
   viewBox="0 0 39.999999 49.999999"
   xml:space="preserve"
   sodipodi:docname="instinct.svg"
   width="40"
   height="50"
   inkscape:version="0.92.2 5c3e80d, 2017-08-06"><metadata
     id="metadata122"><rdf:RDF><cc:Work
         rdf:about=""><dc:format>image/svg+xml</dc:format><dc:type
           rdf:resource="http://purl.org/dc/dcmitype/StillImage" /><dc:title></dc:title></cc:Work></rdf:RDF></metadata><defs
     id="defs120" /><sodipodi:namedview
     pagecolor="#ffffff"
     bordercolor="#666666"
     borderopacity="1"
     objecttolerance="10"
     gridtolerance="10"
     guidetolerance="10"
     inkscape:pageopacity="0"
     inkscape:pageshadow="2"
     inkscape:window-width="895"
     inkscape:window-height="625"
     id="namedview118"
     showgrid="false"
     inkscape:zoom="3.1486693"
     inkscape:cx="63.241001"
     inkscape:cy="63.241001"
     inkscape:window-x="94"
     inkscape:window-y="14"
     inkscape:window-maximized="0"
     inkscape:current-layer="Layer_1" /><g
     id="instinct"
     transform="matrix(0.32077592,0,0,0.32077592,-0.28620173,4.42762)"><g
       id="g80"><g
         id="g4"><path
           style="fill:#ffbe08"
           d="M 96.118,124.982 124.091,21.294 73.513,51.309 v 0.002 c 0.051,7.236 -3.611,14.318 -10.273,18.271 -6.662,3.953 -14.627,3.771 -20.957,0.26 l -26.658,15.82 c 15.752,17.014 41.816,21.377 62.545,9.076 0.193,-0.115 0.379,-0.24 0.57,-0.355 l 0.199,1.646 z"
           id="path2"
           inkscape:connector-curvature="0" /></g><g
         id="g74"><g
           id="g42"><g
             id="g26"><g
               id="g10"><g
                 id="g8"><path
                   style="fill:#ff960b"
                   d="m 63.24,69.582 c -6.662,3.953 -14.627,3.771 -20.957,0.26 L 19.4,83.424 c 15.465,9.73 35.727,10.691 52.496,0.74 16.77,-9.953 25.633,-28.193 24.5,-46.432 L 73.513,51.311 c 0.051,7.236 -3.611,14.318 -10.273,18.271 z"
                   id="path6"
                   inkscape:connector-curvature="0" /></g></g><g
               id="g24"><g
                 id="g14"><path
                   style="fill:#ffbe08"
                   d="m 31.636,51.902 c -0.051,-7.238 3.609,-14.318 10.272,-18.271 6.66,-3.953 14.631,-3.773 20.957,-0.262 L 89.523,17.547 C 73.773,0.535 47.706,-3.828 26.98,8.475 6.251,20.775 -2.409,45.742 4.976,67.719 Z"
                   id="path12"
                   inkscape:connector-curvature="0" /></g><g
                 id="g18"><path
                   style="fill:#ff960b"
                   d="m 41.907,33.631 c 6.66,-3.953 14.631,-3.773 20.957,-0.262 L 85.749,19.787 C 70.28,10.051 50.021,9.094 33.253,19.045 16.484,28.998 7.616,47.238 8.751,65.479 L 31.636,51.903 C 31.585,44.664 35.245,37.584 41.907,33.631 Z"
                   id="path16"
                   inkscape:connector-curvature="0" /></g><g
                 id="g22"><path
                   style="fill:#33363a"
                   d="M 4.976,69.219 C 4.8,69.219 4.622,69.188 4.454,69.125 4.029,68.967 3.699,68.626 3.555,68.196 -4.167,45.217 5.364,19.558 26.215,7.184 47.066,-5.19 74.154,-1.263 90.623,16.527 c 0.308,0.333 0.449,0.787 0.384,1.235 -0.065,0.448 -0.329,0.843 -0.719,1.074 L 63.63,34.659 c -0.458,0.272 -1.027,0.28 -1.493,0.021 -6.077,-3.374 -13.534,-3.28 -19.464,0.24 -5.932,3.52 -9.586,10.022 -9.537,16.971 0.004,0.533 -0.276,1.028 -0.734,1.301 L 5.741,69.009 c -0.234,0.139 -0.499,0.21 -0.765,0.21 z M 52.53,2.996 c -8.527,0 -17.104,2.21 -24.784,6.769 C 8.638,21.104 -0.379,44.283 5.838,65.463 L 30.147,51.042 C 30.39,43.361 34.545,36.255 41.142,32.341 47.739,28.427 55.967,28.184 62.823,31.65 L 87.13,17.223 C 77.793,7.89 65.217,2.996 52.53,2.996 Z"
                   id="path20"
                   inkscape:connector-curvature="0" /></g></g></g><g
             id="g40"><g
               id="g30"><path
                 style="fill:#ffbe08"
                 d="m 61.999,46.012 c 3.09,5.207 1.375,11.93 -3.832,15.018 -5.205,3.09 -11.93,1.377 -15.021,-3.832 -3.088,-5.203 -1.371,-11.932 3.834,-15.019 5.205,-3.091 11.929,-1.372 15.019,3.833 z"
                 id="path28"
                 inkscape:connector-curvature="0" /></g><g
               id="g34"><path
                 style="fill:#ff960b"
                 d="m 43.146,57.197 c -3.088,-5.203 -1.371,-11.932 3.834,-15.019 5.205,-3.09 11.93,-1.371 15.019,3.834"
                 id="path32"
                 inkscape:connector-curvature="0" /></g><g
               id="g38"><path
                 style="fill:#33363a"
                 d="m 52.593,64.07 c -1.033,0 -2.072,-0.13 -3.1,-0.392 -3.226,-0.822 -5.938,-2.853 -7.638,-5.716 -1.698,-2.861 -2.18,-6.214 -1.356,-9.439 0.823,-3.227 2.854,-5.938 5.715,-7.636 5.905,-3.505 13.567,-1.553 17.075,4.358 v 0 c 1.699,2.863 2.182,6.216 1.358,9.439 -0.822,3.226 -2.853,5.937 -5.716,7.634 -1.948,1.16 -4.127,1.752 -6.338,1.752 z M 52.556,42.146 c -1.641,0 -3.301,0.426 -4.811,1.322 -2.173,1.289 -3.714,3.348 -4.339,5.798 -0.625,2.449 -0.26,4.994 1.029,7.166 1.29,2.175 3.35,3.716 5.799,4.34 2.448,0.626 4.994,0.26 7.167,-1.032 2.174,-1.289 3.715,-3.347 4.34,-5.795 0.624,-2.448 0.258,-4.993 -1.032,-7.167 -1.766,-2.977 -4.921,-4.632 -8.153,-4.632 z"
                 id="path36"
                 inkscape:connector-curvature="0" /></g></g></g><g
           id="g72"><g
             id="g56"><g
               id="g46"><path
                 style="fill:#33363a"
                 d="m 21.278,71.678 c -0.512,0 -1.011,-0.262 -1.291,-0.734 -0.423,-0.713 -0.188,-1.633 0.524,-2.056 l 13.32,-7.904 c 0.712,-0.422 1.633,-0.188 2.056,0.524 0.423,0.712 0.188,1.633 -0.524,2.056 l -13.32,7.904 c -0.241,0.142 -0.505,0.21 -0.765,0.21 z"
                 id="path44"
                 inkscape:connector-curvature="0" /></g><g
               id="g50"><path
                 style="fill:#33363a"
                 d="m 13.604,76.225 c -0.391,0 -0.78,-0.16 -1.061,-0.44 -0.279,-0.27 -0.439,-0.659 -0.439,-1.06 0,-0.39 0.16,-0.78 0.439,-1.06 0.561,-0.551 1.57,-0.551 2.12,0 0.28,0.279 0.44,0.67 0.44,1.06 0,0.4 -0.16,0.78 -0.44,1.06 -0.28,0.28 -0.66,0.44 -1.059,0.44 z"
                 id="path48"
                 inkscape:connector-curvature="0" /></g><g
               id="g54"><path
                 style="fill:#33363a"
                 d="m 6.613,80.375 c -0.39,0 -0.771,-0.16 -1.061,-0.44 -0.279,-0.28 -0.439,-0.67 -0.439,-1.06 0,-0.391 0.16,-0.78 0.439,-1.061 0.57,-0.56 1.561,-0.56 2.12,0 0.28,0.28 0.44,0.67 0.44,1.061 0,0.39 -0.16,0.779 -0.44,1.06 -0.278,0.28 -0.669,0.44 -1.059,0.44 z"
                 id="path52"
                 inkscape:connector-curvature="0" /></g></g><g
             id="g70"><g
               id="g60"><path
                 style="fill:#33363a"
                 d="m 70.551,42.436 c -0.512,0 -1.011,-0.263 -1.291,-0.734 -0.423,-0.713 -0.188,-1.633 0.524,-2.056 l 13.318,-7.9 c 0.713,-0.421 1.633,-0.188 2.056,0.524 0.423,0.713 0.188,1.633 -0.524,2.056 l -13.318,7.9 c -0.241,0.142 -0.504,0.21 -0.765,0.21 z"
                 id="path58"
                 inkscape:connector-curvature="0" /></g><g
               id="g64"><path
                 style="fill:#33363a"
                 d="m 91.543,29.984 c -0.399,0 -0.79,-0.16 -1.06,-0.439 -0.28,-0.28 -0.44,-0.67 -0.44,-1.061 0,-0.399 0.16,-0.79 0.44,-1.069 0.56,-0.561 1.55,-0.561 2.12,0 0.279,0.279 0.439,0.67 0.439,1.069 0,0.391 -0.16,0.78 -0.439,1.061 -0.28,0.279 -0.669,0.439 -1.06,0.439 z"
                 id="path62"
                 inkscape:connector-curvature="0" /></g><g
               id="g68"><path
                 style="fill:#33363a"
                 d="m 98.531,25.834 c -0.512,0 -1.011,-0.262 -1.291,-0.734 -0.423,-0.712 -0.188,-1.633 0.524,-2.056 L 118,11.032 c 0.713,-0.422 1.633,-0.188 2.056,0.524 0.423,0.712 0.188,1.633 -0.524,2.056 L 99.296,25.624 c -0.24,0.143 -0.504,0.21 -0.765,0.21 z"
                 id="path66"
                 inkscape:connector-curvature="0" /></g></g></g></g><g
         id="g78"><path
           style="fill:#33363a"
           d="m 96.118,126.482 c -0.524,0 -1.018,-0.275 -1.29,-0.734 L 77.648,96.795 c -0.004,-0.007 -0.009,-0.015 -0.013,-0.021 -20.667,11.46 -46.983,7.329 -63.112,-10.092 -0.308,-0.333 -0.449,-0.787 -0.384,-1.235 0.065,-0.448 0.329,-0.843 0.719,-1.074 l 26.658,-15.82 c 0.458,-0.271 1.027,-0.28 1.493,-0.021 6.078,3.371 13.536,3.277 19.464,-0.238 5.933,-3.521 9.588,-10.023 9.539,-16.971 -0.004,-0.533 0.276,-1.028 0.734,-1.301 l 50.578,-30.016 c 0.525,-0.312 1.187,-0.274 1.673,0.096 0.486,0.369 0.7,0.996 0.541,1.585 L 97.567,125.373 c -0.157,0.582 -0.647,1.014 -1.245,1.096 -0.069,0.009 -0.136,0.013 -0.204,0.013 z M 80.39,95.535 95.596,121.162 121.681,24.47 75.002,52.169 C 74.759,59.85 70.603,66.957 64.005,70.872 57.411,74.785 49.182,75.025 42.324,71.561 L 18.018,85.986 c 15.612,15.608 40.279,18.8 59.386,7.462 l 0.563,-0.351 c 0.435,-0.262 0.974,-0.286 1.432,-0.063 0.457,0.223 0.77,0.662 0.831,1.167 z"
           id="path76"
           inkscape:connector-curvature="0" /></g></g><g
       id="g84"><path
         style="fill:#33363a"
         d="m 91.79,93.438 c -0.557,0 -1.067,-0.309 -1.327,-0.801 L 80,72.781 c -0.292,-0.555 -0.209,-1.232 0.209,-1.699 0.417,-0.467 1.08,-0.624 1.666,-0.396 l 9.915,3.887 9.915,-3.887 c 0.586,-0.228 1.249,-0.07 1.666,0.396 0.418,0.467 0.501,1.145 0.209,1.699 L 93.117,92.637 c -0.259,0.492 -0.77,0.801 -1.327,0.801 z M 84.534,74.95 91.79,88.72 99.046,74.95 92.338,77.58 c -0.354,0.139 -0.742,0.139 -1.096,0 z"
         id="path82"
         inkscape:connector-curvature="0" /></g></g><g
     id="g87"
     transform="translate(0,-76.482002)" /><g
     id="g89"
     transform="translate(0,-76.482002)" /><g
     id="g91"
     transform="translate(0,-76.482002)" /><g
     id="g93"
     transform="translate(0,-76.482002)" /><g
     id="g95"
     transform="translate(0,-76.482002)" /><g
     id="g97"
     transform="translate(0,-76.482002)" /><g
     id="g99"
     transform="translate(0,-76.482002)" /><g
     id="g101"
     transform="translate(0,-76.482002)" /><g
     id="g103"
     transform="translate(0,-76.482002)" /><g
     id="g105"
     transform="translate(0,-76.482002)" /><g
     id="g107"
     transform="translate(0,-76.482002)" /><g
     id="g109"
     transform="translate(0,-76.482002)" /><g
     id="g111"
     transform="translate(0,-76.482002)" /><g
     id="g113"
     transform="translate(0,-76.482002)" /><g
     id="g115"
     transform="translate(0,-76.482002)" /></svg>