<?xml version="1.0" encoding="UTF-8" standalone="no"?>
<!-- Generator: Adobe Illustrator 19.0.0, SVG Export Plug-In . SVG Version: 6.00 Build 0)  -->

<svg
   xmlns:dc="http://purl.org/dc/elements/1.1/"
   xmlns:cc="http://creativecommons.org/ns#"
   xmlns:rdf="http://www.w3.org/1999/02/22-rdf-syntax-ns#"
   xmlns:svg="http://www.w3.org/2000/svg"
   xmlns="http://www.w3.org/2000/svg"
   xmlns:sodipodi="http://sodipodi.sourceforge.net/DTD/sodipodi-0.dtd"
   xmlns:inkscape="http://www.inkscape.org/namespaces/inkscape"
   version="1.1"
   id="Capa_1"
   x="0px"
   y="0px"
   viewBox="0 0 20 20"
   xml:space="preserve"
   sodipodi:docname="mushroom.svg"
   width="20"
   height="20"
   inkscape:version="0.92.2 5c3e80d, 2017-08-06"><metadata
     id="metadata52"><rdf:RDF><cc:Work
         rdf:about=""><dc:format>image/svg+xml</dc:format><dc:type
           rdf:resource="http://purl.org/dc/dcmitype/StillImage" /><dc:title></dc:title></cc:Work></rdf:RDF></metadata><defs
     id="defs50" /><sodipodi:namedview
     pagecolor="#ffffff"
     bordercolor="#666666"
     borderopacity="1"
     objecttolerance="10"
     gridtolerance="10"
     guidetolerance="10"
     inkscape:pageopacity="0"
     inkscape:pageshadow="2"
     inkscape:window-width="1101"
     inkscape:window-height="695"
     id="namedview48"
     showgrid="false"
     inkscape:zoom="0.90386963"
     inkscape:cx="256"
     inkscape:cy="256"
     inkscape:window-x="0"
     inkscape:window-y="0"
     inkscape:window-maximized="0"
     inkscape:current-layer="Capa_1" /><g
     id="mushroom"
     transform="scale(0.0390625)"><path
       style="fill:#303c42"
       d="M 512,256 C 512,114.844 397.167,0 256,0 114.833,0 0,114.844 0,256 0,325.727 30.309,377.482 89.641,410.245 101.427,492.888 137.385,512 256,512 371.302,512 408.566,494.118 421.385,417.212 481.357,386.198 512,332.13 512,256 Z"
       id="path2"
       inkscape:connector-curvature="0" /><path
       id="SVGCleanerId_0"
       style="fill:#f2f2f2"
       d="M 488.715,285.333 C 463.018,261.271 448,227.522 448,192 c 0,-18.168 3.918,-36.04 11.402,-52.533 19.776,34.38 31.264,74.103 31.264,116.533 10e-4,10.32 -0.771,19.995 -1.951,29.333 z"
       inkscape:connector-curvature="0" /><g
       id="g9"><circle
         style="fill:#f2f2f2"
         cx="256"
         cy="149.33299"
         r="106.667"
         id="circle5" /><path
         style="fill:#f2f2f2"
         d="M 52.598,139.467 C 60.082,155.96 64,173.832 64,192 64,227.251 49.156,260.836 23.742,284.868 22.314,275.621 21.333,266.104 21.333,256 c 0,-42.43 11.489,-82.152 31.265,-116.533 z"
         id="path7"
         inkscape:connector-curvature="0" /></g><path
       style="fill:#fee4d0"
       d="m 256,490.667 c -124.896,0 -140.979,-20.281 -147.854,-106.24 30.708,-33.25 86.833,-53.76 147.854,-53.76 61.021,0 117.146,20.51 147.854,53.76 -6.875,85.958 -22.958,106.24 -147.854,106.24 z"
       id="path11"
       inkscape:connector-curvature="0" /><path
       id="SVGCleanerId_1"
       style="fill:#d32f2f"
       d="m 424.6,390.984 c 0.292,-3.152 0.632,-6.142 0.879,-9.453 0.208,-2.802 -0.708,-5.573 -2.521,-7.719 C 389.02,334.041 325.041,309.333 256,309.333 c -69.041,0 -133.021,24.708 -166.958,64.479 -1.813,2.146 -2.729,4.917 -2.521,7.719 0.057,0.76 0.143,1.418 0.202,2.169 C 58.082,364.572 38.994,339.233 29.198,308.186 64.376,279.922 85.333,237.188 85.333,192 85.333,166.392 78.39,141.44 65.803,119.089 106.053,63.334 170.054,26.041 242.925,21.997 178.461,28.566 128,83.163 128,149.333 c 0,70.583 57.417,128 128,128 70.583,0 128,-57.417 128,-128 0,-66.171 -50.461,-120.767 -114.926,-127.337 72.871,4.044 136.872,41.337 177.122,97.092 -12.587,22.352 -19.53,47.303 -19.53,72.911 0,45.802 21.447,88.967 57.414,117.219 -9.359,35.352 -29.006,62.456 -59.48,81.766 z"
       inkscape:connector-curvature="0" /><g
       id="g15"><path
         id="SVGCleanerId_0_1_"
         style="fill:#f2f2f2"
         d="M 488.715,285.333 C 463.018,261.271 448,227.522 448,192 c 0,-18.168 3.918,-36.04 11.402,-52.533 19.776,34.38 31.264,74.103 31.264,116.533 10e-4,10.32 -0.771,19.995 -1.951,29.333 z"
         inkscape:connector-curvature="0" /></g><g
       id="g18"><path
         id="SVGCleanerId_1_1_"
         style="fill:#d32f2f"
         d="m 424.6,390.984 c 0.292,-3.152 0.632,-6.142 0.879,-9.453 0.208,-2.802 -0.708,-5.573 -2.521,-7.719 C 389.02,334.041 325.041,309.333 256,309.333 c -69.041,0 -133.021,24.708 -166.958,64.479 -1.813,2.146 -2.729,4.917 -2.521,7.719 0.057,0.76 0.143,1.418 0.202,2.169 C 58.082,364.572 38.994,339.233 29.198,308.186 64.376,279.922 85.333,237.188 85.333,192 85.333,166.392 78.39,141.44 65.803,119.089 106.053,63.334 170.054,26.041 242.925,21.997 178.461,28.566 128,83.163 128,149.333 c 0,70.583 57.417,128 128,128 70.583,0 128,-57.417 128,-128 0,-66.171 -50.461,-120.767 -114.926,-127.337 72.871,4.044 136.872,41.337 177.122,97.092 -12.587,22.352 -19.53,47.303 -19.53,72.911 0,45.802 21.447,88.967 57.414,117.219 -9.359,35.352 -29.006,62.456 -59.48,81.766 z"
         inkscape:connector-curvature="0" /></g><linearGradient
       id="SVGID_1_"
       gradientUnits="userSpaceOnUse"
       x1="-38.169998"
       y1="631.93408"
       x2="-29.916"
       y2="623.68018"
       gradientTransform="matrix(21.3333,0,0,-21.3333,996.3334,13791.667)"><stop
         offset="0"
         style="stop-color:#000000;stop-opacity:0.1"
         id="stop20" /><stop
         offset="1"
         style="stop-color:#000000;stop-opacity:0"
         id="stop22" /></linearGradient><path
       style="fill:url(#SVGID_1_)"
       d="m 256,490.667 c 124.896,0 140.979,-20.281 147.854,-106.24 -30.708,-33.25 -86.833,-53.76 -147.854,-53.76 -61.021,0 -117.146,20.51 -147.854,53.76 l 105.138,105.138 c 12.616,0.758 26.752,1.102 42.716,1.102 z"
       id="path25"
       inkscape:connector-curvature="0" /><g
       id="g31"><path
         style="fill:#303c42"
         d="m 197.333,362.667 c -8.313,0 -16,5.167 -16,42.667 0,37.5 7.688,42.667 16,42.667 8.312,0 16,-5.167 16,-42.667 0,-37.5 -7.687,-42.667 -16,-42.667 z"
         id="path27"
         inkscape:connector-curvature="0" /><path
         style="fill:#303c42"
         d="m 314.667,448 c 8.313,0 16,-5.167 16,-42.667 0,-37.5 -7.688,-42.667 -16,-42.667 -8.312,0 -16,5.167 -16,42.667 0,37.5 7.687,42.667 16,42.667 z"
         id="path29"
         inkscape:connector-curvature="0" /></g><linearGradient
       id="SVGID_2_"
       gradientUnits="userSpaceOnUse"
       x1="-45.6828"
       y1="639.33148"
       x2="-24.058901"
       y2="629.24847"
       gradientTransform="matrix(21.3333,0,0,-21.3333,996.3334,13791.667)"><stop
         offset="0"
         style="stop-color:#FFFFFF;stop-opacity:0.2"
         id="stop33" /><stop
         offset="1"
         style="stop-color:#FFFFFF;stop-opacity:0"
         id="stop35" /></linearGradient><path
       style="fill:url(#SVGID_2_)"
       d="M 512,256 C 512,114.844 397.167,0 256,0 114.833,0 0,114.844 0,256 0,325.727 30.309,377.482 89.641,410.245 101.427,492.888 137.385,512 256,512 371.302,512 408.566,494.118 421.385,417.212 481.357,386.198 512,332.13 512,256 Z"
       id="path38"
       inkscape:connector-curvature="0" /><path
       style="opacity:0.1;enable-background:new"
       d="m 23.742,284.868 c 3.85,-3.642 7.37,-7.566 10.72,-11.618 -4.297,-1.536 -8.4,-3.263 -12.57,-4.923 0.422,5.63 1.018,11.156 1.85,16.541 z"
       id="path40"
       inkscape:connector-curvature="0" /><path
       style="opacity:0.1;enable-background:new"
       d="m 449.07,207.586 c 3.703,29.678 17.746,57.241 39.645,77.747 1.18,-9.339 1.952,-19.013 1.952,-29.333 0,-28.292 -5.501,-55.197 -14.768,-80.301 -7.464,11.19 -16.491,21.837 -26.829,31.887 z"
       id="path42"
       inkscape:connector-curvature="0" /><path
       style="opacity:0.1;enable-background:new"
       d="m 55.904,280.103 c -7.65,10.348 -16.496,19.88 -26.706,28.083 9.796,31.047 28.884,56.387 57.525,75.514 -0.059,-0.751 -0.145,-1.409 -0.202,-2.169 -0.208,-2.802 0.708,-5.573 2.521,-7.719 33.938,-39.771 97.917,-64.479 166.958,-64.479 69.041,0 133.021,24.708 166.958,64.479 1.813,2.146 2.729,4.917 2.521,7.719 -0.247,3.311 -0.587,6.301 -0.879,9.453 30.474,-19.31 50.121,-46.414 59.48,-81.766 -27.411,-21.531 -46.306,-51.745 -53.784,-85.165 -57.753,45.495 -145.493,74.613 -243.63,74.613 -46.687,10e-4 -90.877,-6.761 -130.762,-18.563 z"
       id="path44"
       inkscape:connector-curvature="0" /></g></svg>