<?xml version="1.0" encoding="UTF-8" standalone="no"?>
<!-- Generator: Adobe Illustrator 19.0.0, SVG Export Plug-In . SVG Version: 6.00 Build 0)  -->

<svg
   xmlns:dc="http://purl.org/dc/elements/1.1/"
   xmlns:cc="http://creativecommons.org/ns#"
   xmlns:rdf="http://www.w3.org/1999/02/22-rdf-syntax-ns#"
   xmlns:svg="http://www.w3.org/2000/svg"
   xmlns="http://www.w3.org/2000/svg"
   xmlns:sodipodi="http://sodipodi.sourceforge.net/DTD/sodipodi-0.dtd"
   xmlns:inkscape="http://www.inkscape.org/namespaces/inkscape"
   version="1.1"
   id="Capa_1"
   x="0px"
   y="0px"
   viewBox="0 0 40 40"
   xml:space="preserve"
   sodipodi:docname="super-mario.svg"
   width="40"
   height="40"
   inkscape:version="0.92.2 5c3e80d, 2017-08-06"><metadata
     id="metadata57"><rdf:RDF><cc:Work
         rdf:about=""><dc:format>image/svg+xml</dc:format><dc:type
           rdf:resource="http://purl.org/dc/dcmitype/StillImage" /><dc:title /></cc:Work></rdf:RDF></metadata><defs
     id="defs55" /><sodipodi:namedview
     pagecolor="#ffffff"
     bordercolor="#666666"
     borderopacity="1"
     objecttolerance="10"
     gridtolerance="10"
     guidetolerance="10"
     inkscape:pageopacity="0"
     inkscape:pageshadow="2"
     inkscape:window-width="1135"
     inkscape:window-height="743"
     id="namedview53"
     showgrid="false"
     inkscape:zoom="8"
     inkscape:cx="21.462489"
     inkscape:cy="14.114764"
     inkscape:window-x="90"
     inkscape:window-y="13"
     inkscape:window-maximized="0"
     inkscape:current-layer="Capa_1" /><g
     id="mario"
     transform="matrix(-0.078125,0,0,0.078125,40,0)"><path
       style="fill:#303c42"
       d="m 512,213.333 c 0,-16.656 -14.479,-50.708 -68.708,-62.969 -2.896,-3.646 -5.875,-7.479 -8.979,-11.448 C 391.125,83.604 325.854,0 213.333,0 92.211,0 65.279,65.26 64.115,163.836 28.352,175.513 0,194.802 0,224 c 0,37.135 37.807,50.195 64.488,52.796 2.121,32.044 14.188,50.189 31.368,68.493 -6.599,9.488 -10.523,20.967 -10.523,33.378 0,18.359 8.646,34.57 21.887,45.335 C 112.93,488.661 187.013,512 256,512 303.167,512 388.958,477.031 423.625,383.812 490.188,380.427 512,332.822 512,309.333 512,291.993 506.367,274.728 495.74,262.436 511.957,245.37 512,221.818 512,213.333 Z"
       id="path2"
       inkscape:connector-curvature="0" /><path
       style="fill:#e53935"
       d="m 213.333,21.333 c 102.104,0 161.104,75.552 204.167,130.719 4,5.125 7.833,10.021 11.5,14.615 1.563,1.958 3.771,3.302 6.25,3.792 45.229,9.052 55.417,34.625 55.417,42.875 0,7.829 -0.164,25.327 -12.431,36.185 -5.842,-2.513 -12.254,-4.185 -19.569,-4.185 -8.801,0 -16.534,2.159 -23.346,5.868 -95.46,-81.266 -170.975,-97.97 -230.148,-101.145 12.473,-12.341 19.194,-28.311 18.786,-45.214 C 223.542,87.562 215.813,71.551 202.188,59.76 188.834,48.218 171.896,42.156 153.084,42.552 c -14.422,0.353 -28.013,4.871 -39.405,12.669 19.113,-22.007 50.067,-33.888 99.654,-33.888 z"
       id="path4"
       inkscape:connector-curvature="0" /><path
       style="opacity:0.2;fill:#ffffff;enable-background:new"
       d="m 183.009,48.215 c 6.229,-0.461 12.717,-0.75 19.658,-0.75 102.104,0 161.104,75.552 204.167,130.719 4,5.125 7.833,10.021 11.5,14.615 1.563,1.958 3.771,3.302 6.25,3.792 45.229,9.051 55.416,34.624 55.416,42.874 0,2.118 -0.073,5.004 -0.333,8.216 10.522,-10.908 11,-26.911 11,-34.348 0,-8.25 -10.188,-33.823 -55.417,-42.875 -2.479,-0.49 -4.688,-1.833 -6.25,-3.792 -3.667,-4.594 -7.5,-9.49 -11.5,-14.615 C 374.438,96.885 315.438,21.333 213.333,21.333 c -49.587,0 -80.542,11.88 -99.655,33.888 11.392,-7.798 24.983,-12.316 39.405,-12.669 10.727,-0.225 20.735,1.87 29.926,5.663 z"
       id="path6"
       inkscape:connector-curvature="0" /><g
       id="g12"><path
         style="fill:#6d4c41"
         d="m 395.257,248.439 c 7.611,5.316 15.598,11.234 23.874,17.602 -6.762,9.785 -11.307,22.65 -13.005,38.522 l -28.771,-11.51 c 4.865,-10.194 12.086,-26.696 17.902,-44.614 z"
         id="path8"
         inkscape:connector-curvature="0" /><path
         style="fill:#6d4c41"
         d="m 411.143,282.182 c 2.145,-6.036 4.772,-11.491 7.987,-16.142 -8.276,-6.367 -16.263,-12.285 -23.874,-17.602 -2.517,7.757 -5.294,15.124 -8.034,21.953 7.107,3.606 16.114,7.721 23.921,11.791 z"
         id="path10"
         inkscape:connector-curvature="0" /></g><g
       id="g18"><path
         style="fill:#ffffff"
         d="m 155.688,149.188 c -12.333,0.208 -25.271,-3.938 -34.583,-12 -1.676,-1.448 -3.07,-3.073 -4.47,-4.691 l 20.22,-26.954 8.271,16.563 c 3.625,7.229 15.458,7.229 19.083,0 l 8.271,-16.563 20.027,26.697 c -0.941,1.091 -1.753,2.253 -2.819,3.272 -8.917,8.498 -20.98,13.363 -34,13.676 z"
         id="path14"
         inkscape:connector-curvature="0" /><path
         style="fill:#ffffff"
         d="m 202.263,109.677 -23.055,-30.74 c -2.229,-2.958 -5.813,-4.667 -9.5,-4.229 -3.688,0.333 -6.938,2.552 -8.583,5.854 l -6.458,12.917 -6.458,-12.917 c -1.646,-3.302 -4.896,-5.521 -8.583,-5.854 -3.667,-0.438 -7.271,1.271 -9.5,4.229 l -23.158,30.876 c -0.056,-0.71 -0.263,-1.389 -0.28,-2.105 C 106.417,96.5 111,85.802 119.625,77.563 c 8.917,-8.5 20.979,-13.365 34,-13.677 0.438,-0.01 0.896,-0.021 1.354,-0.021 12.479,0 24.25,4.24 33.229,12.021 9.042,7.813 14.146,18.281 14.417,29.479 0.035,1.458 -0.234,2.875 -0.362,4.312 z"
         id="path16"
         inkscape:connector-curvature="0" /></g><path
       style="fill:#303c42"
       d="m 87.829,123.18 c 3.262,11.422 9.727,21.852 19.296,30.133 0.122,0.105 0.27,0.176 0.392,0.28 -7.367,1.164 -14.73,2.608 -21.99,4.29 0.282,-12.306 0.981,-23.921 2.302,-34.703 z"
       id="path20"
       inkscape:connector-curvature="0" /><path
       style="fill:#d32f2f"
       d="m 21.333,224 c 0,-31.427 73.083,-53.333 138.667,-53.333 h 3.479 c 11.493,-0.04 23.734,-0.055 36.749,0.551 -59.24,4.77 -124.77,40.688 -134.788,84.122 C 50.173,253.609 21.333,247.271 21.333,224 Z"
       id="path22"
       inkscape:connector-curvature="0" /><path
       style="opacity:0.1;enable-background:new"
       d="m 45.105,234.682 c 0,-25.422 47.827,-44.6 100.816,-51.008 17.518,-6.603 36.199,-10.999 54.306,-12.457 -13.014,-0.605 -25.255,-0.591 -36.749,-0.551 H 160 c -65.583,0 -138.667,21.906 -138.667,53.333 0,18.26 17.708,26.029 32.73,29.392 -5.286,-4.53 -8.958,-10.526 -8.958,-18.709 z"
       id="path24"
       inkscape:connector-curvature="0" /><path
       style="fill:#ffffff"
       d="m 106.667,320 c 0,2.477 0.635,4.772 1.414,6.986 -4.714,-5.271 -8.659,-10.371 -11.875,-15.641 0.911,-20.508 9.833,-34.012 15.794,-34.012 4.737,0 11.255,8.243 14.298,21.677 -10.933,0.913 -19.631,9.832 -19.631,20.99 z"
       id="path26"
       inkscape:connector-curvature="0" /><path
       style="fill:#29b6f6"
       d="m 124.816,293.642 c -1.798,-0.987 -3.909,-1.961 -5.515,-1.961 -6.669,0 -15.984,9.961 -19.751,24.725 2.607,3.737 5.145,6.793 8.531,10.579 -0.779,-2.214 -1.414,-4.509 -1.414,-6.986 0,-11.158 8.698,-20.077 19.632,-20.99 -0.49,-2.159 -0.836,-3.488 -1.483,-5.367 z"
       id="path28"
       inkscape:connector-curvature="0" /><path
       style="fill:#fee4d0"
       d="m 416,362.667 c -4.583,0 -8.667,2.938 -10.125,7.292 C 376.563,457.896 298.396,490.667 256,490.667 c -26.651,0 -107.706,-4.423 -124.647,-54.788 4.083,0.902 8.296,1.454 12.647,1.454 8.225,0 16.042,-1.732 23.152,-4.799 13.795,7.625 31.369,15.466 46.181,15.466 22.729,0 36.667,-10.604 41.125,-23.104 16.833,-4.104 47.396,-14.094 53.708,-33.542 11.083,-5.948 33.167,-22.583 33.167,-60.688 0,-3.927 -2.167,-7.531 -5.625,-9.396 -3.479,-1.854 -7.646,-1.656 -10.938,0.5 -0.563,0.375 -57.729,37.604 -133.75,40.594 l 0.004,0.096 c -0.221,0.017 -0.427,-0.076 -0.65,-0.044 -5.854,0.719 -10.021,6.042 -9.292,11.885 0.167,1.438 0.25,2.885 0.25,4.365 C 181.333,399.25 164.583,416 144,416 c -20.583,0 -37.333,-16.75 -37.333,-37.333 0,-20.583 16.75,-37.333 37.333,-37.333 5.896,0 10.667,-4.771 10.667,-10.667 0,-4.035 -2.323,-7.419 -5.624,-9.23 0.035,-0.5 0.29,-5.612 0.29,-6.77 C 149.333,281.219 133.292,256 112,256 c -10.503,0 -19.759,6.228 -26.423,16.582 -0.081,-1.97 -0.243,-3.799 -0.243,-5.915 0,-7.371 3.186,-14.947 8.549,-22.332 10.824,-1.629 30.72,2.018 37.242,8.54 2.083,2.083 4.813,3.125 7.542,3.125 2.729,0 5.458,-1.042 7.542,-3.125 4.167,-4.167 4.167,-10.917 0,-15.083 -7.236,-7.236 -19.195,-11.691 -31.16,-13.757 C 140.444,205.699 178.276,192 213.333,192 c 18.664,0 36.177,0.051 54.22,2.156 -25.234,-2.507 -38.049,7.978 -48.012,19 -1.063,1.167 -2.063,2.292 -3.083,3.302 -4.167,4.167 -4.167,10.917 0,15.083 2.083,2.083 4.813,3.125 7.542,3.125 2.729,0 5.458,-1.042 7.542,-3.125 1.25,-1.25 2.5,-2.635 3.813,-4.083 8.729,-9.625 18.583,-20.542 59.354,-4.219 5.438,2.188 11.667,-0.479 13.854,-5.948 2.187,-5.469 -0.458,-11.677 -5.938,-13.865 -11.564,-4.62 -21.302,-7.233 -29.867,-8.607 30.135,4.194 62.225,14.737 104.023,41.247 -8.805,29.431 -23.378,57.302 -23.531,57.609 -1.417,2.677 -1.646,5.823 -0.604,8.667 1.042,2.833 3.25,5.104 6.063,6.229 l 53.333,21.333 c 3.271,1.333 7.021,0.906 9.938,-1.073 2.938,-1.99 4.688,-5.292 4.688,-8.833 0,-16.031 3.125,-53.333 32,-53.333 25.313,0 32,27.906 32,42.667 -0.001,17.408 -18.251,53.335 -74.668,53.335 z"
       id="path30"
       inkscape:connector-curvature="0" /><path
       style="opacity:0.1;enable-background:new"
       d="m 458.667,266.667 c -3.355,0 -6.289,0.604 -8.984,1.52 6.635,9.366 8.984,22.023 8.984,30.48 0,17.406 -18.25,53.333 -74.667,53.333 -4.583,0 -8.667,2.938 -10.125,7.292 C 344.563,447.229 266.396,480 224,480 c -11.427,0 -32.862,-0.844 -54.949,-5.742 30.561,14.526 69.884,16.409 86.949,16.409 42.396,0 120.563,-32.771 149.875,-120.708 1.458,-4.354 5.542,-7.292 10.125,-7.292 56.417,0 74.667,-35.927 74.667,-53.333 0,-14.761 -6.688,-42.667 -32,-42.667 z"
       id="path32"
       inkscape:connector-curvature="0" /><path
       style="opacity:0.2;fill:#ffffff;enable-background:new"
       d="m 154.486,414.315 c -20.5,-0.102 -37.152,-16.793 -37.152,-37.315 0,-17.102 11.629,-31.402 27.346,-35.803 -0.237,0.016 -0.439,0.137 -0.68,0.137 -20.583,0 -37.333,16.75 -37.333,37.333 0,20.583 16.75,37.333 37.333,37.333 3.665,0 7.137,-0.695 10.486,-1.685 z"
       id="path34"
       inkscape:connector-curvature="0" /><path
       style="fill:#6d4c41"
       d="m 202.24,382.892 c 50.336,-3.882 91.441,-20.52 114.385,-32.079 -6.604,17.583 -20.646,22.823 -21.333,23.073 -4.354,1.447 -7.292,5.52 -7.292,10.114 0,6.323 -22.167,16.99 -44.771,21.542 -4.979,1 -8.563,5.375 -8.563,10.458 0,5.167 -7.479,10.667 -21.333,10.667 -6.47,0 -15.85,-2.93 -26.633,-8.029 8.909,-9.513 14.536,-21.964 15.54,-35.746 z"
       id="path36"
       inkscape:connector-curvature="0" /><path
       style="fill:#303c42"
       d="m 256,224 c -23.521,0 -42.667,23.927 -42.667,53.333 0,29.406 19.146,53.333 42.667,53.333 17.219,0 32.008,-12.885 38.742,-31.293 0.025,-0.065 0.089,-0.109 0.112,-0.176 0.022,-0.063 0.026,-0.13 0.048,-0.193 1.365,-3.81 2.368,-7.84 2.987,-12.057 0.018,-0.124 0.073,-0.241 0.09,-0.365 0.018,-0.135 -0.043,-0.268 -0.029,-0.404 0.391,-2.893 0.716,-5.818 0.716,-8.846 C 298.667,247.927 279.521,224 256,224 Z"
       id="path38"
       inkscape:connector-curvature="0" /><path
       style="fill:#ffffff"
       d="m 234.667,277.333 c 0,-17.344 9.771,-32 21.333,-32 9.135,0 17.069,9.201 20.033,21.596 C 264.9,267.641 256,276.701 256,288 c 0,7.415 4.031,13.642 9.792,17.466 -2.964,2.382 -6.27,3.867 -9.792,3.867 -11.562,0 -21.333,-14.656 -21.333,-32 z"
       id="path40"
       inkscape:connector-curvature="0" /><path
       style="fill:#29b6f6"
       d="m 276.033,266.93 c -0.883,-3.693 -1.991,-6.897 -3.656,-9.863 -1.349,-0.423 -2.987,-1.067 -4.409,-1.067 -11.563,0 -21.333,14.656 -21.333,32 0,7.85 2.072,15.063 5.335,20.702 1.311,0.395 2.656,0.632 4.031,0.632 3.522,0 6.828,-1.486 9.792,-3.867 C 260.031,301.642 256,295.415 256,288 c 0,-11.299 8.9,-20.359 20.033,-21.07 z"
       id="path42"
       inkscape:connector-curvature="0" /><linearGradient
       id="SVGID_1_"
       gradientUnits="userSpaceOnUse"
       x1="-45.52"
       y1="638.96753"
       x2="-23.890499"
       y2="628.88232"
       gradientTransform="matrix(21.3333,0,0,-21.3333,996.3334,13791.667)"><stop
         offset="0"
         style="stop-color:#FFFFFF;stop-opacity:0.2"
         id="stop44" /><stop
         offset="1"
         style="stop-color:#FFFFFF;stop-opacity:0"
         id="stop46" /></linearGradient><path
       style="fill:url(#SVGID_1_)"
       d="m 512,213.333 c 0,-16.656 -14.479,-50.708 -68.708,-62.969 -2.896,-3.646 -5.875,-7.479 -8.979,-11.448 C 391.125,83.604 325.854,0 213.333,0 92.211,0 65.279,65.26 64.115,163.836 28.352,175.513 0,194.802 0,224 c 0,37.135 37.807,50.195 64.488,52.796 2.121,32.044 14.188,50.189 31.368,68.493 -6.599,9.488 -10.523,20.967 -10.523,33.378 0,18.359 8.646,34.57 21.887,45.335 C 112.93,488.661 187.013,512 256,512 303.167,512 388.958,477.031 423.625,383.812 490.188,380.427 512,332.822 512,309.333 512,291.993 506.367,274.728 495.74,262.436 511.957,245.37 512,221.818 512,213.333 Z"
       id="path49"
       inkscape:connector-curvature="0" /></g></svg>